<svg width="26" height="25" viewBox="0 0 26 25" fill="none" xmlns="http://www.w3.org/2000/svg">
<path d="M24.5313 19.2857H1.46875L1 23.4777C0.973214 23.7188 1.05357 23.9598 1.21429 24.1473C1.375 24.3214 1.61607 24.4286 1.85714 24.4286H24.1429C24.3839 24.4286 24.625 24.3214 24.7857 24.1473C24.9464 23.9598 25.0268 23.7188 25 23.4777L24.5313 19.2857ZM23.2857 8.04911C23.2321 7.62053 22.8705 7.28571 22.4286 7.28571H19V9C19 9.95089 18.2366 10.7143 17.2857 10.7143C16.3348 10.7143 15.5714 9.95089 15.5714 9V7.28571H10.4286V9C10.4286 9.95089 9.66518 10.7143 8.71429 10.7143C7.76339 10.7143 7 9.95089 7 9V7.28571H3.57143C3.12946 7.28571 2.76786 7.62053 2.71429 8.04911L1.5625 18.4286H24.4375L23.2857 8.04911ZM18.1429 5.57143C18.1429 2.73214 15.8393 0.42857 13 0.42857C10.1607 0.42857 7.85714 2.73214 7.85714 5.57143V9C7.85714 9.46875 8.24554 9.85714 8.71429 9.85714C9.18304 9.85714 9.57143 9.46875 9.57143 9V5.57143C9.57143 3.68303 11.1116 2.14286 13 2.14286C14.8884 2.14286 16.4286 3.68303 16.4286 5.57143V9C16.4286 9.46875 16.817 9.85714 17.2857 9.85714C17.7545 9.85714 18.1429 9.46875 18.1429 9V5.57143Z" fill="black"/>
</svg>
